<svg width="29" height="36" viewBox="0 0 29 36" fill="none" xmlns="http://www.w3.org/2000/svg">
<path d="M24.0645 19.1154C24.0242 14.6446 27.7277 12.4696 27.897 12.3683C25.7996 9.31243 22.5486 8.8949 21.4062 8.86161C18.6758 8.57447 16.0273 10.4943 14.6364 10.4943C13.2177 10.4943 11.0759 8.88935 8.76746 8.93652C5.79689 8.98229 3.01789 10.701 1.49374 13.3698C-1.65172 18.8116 0.69419 26.8085 3.70778 31.2071C5.21527 33.3613 6.97679 35.7667 9.28245 35.682C11.5381 35.5891 12.3807 34.245 15.1028 34.245C17.7999 34.245 18.5911 35.682 20.9426 35.6279C23.3635 35.5891 24.8876 33.464 26.3424 31.2903C28.0844 28.8212 28.7841 26.3896 28.8118 26.2647C28.7549 26.2453 24.1103 24.4739 24.0645 19.1154Z" fill="white"/>
<path d="M19.6212 6.33243C20.8344 4.81628 21.6645 2.7536 21.4341 0.6604C19.6781 0.73808 17.4821 1.87415 16.2176 3.35701C15.0987 4.6637 14.0993 6.80545 14.3575 8.81958C16.33 8.96662 18.3553 7.825 19.6212 6.33243Z" fill="white"/>
</svg>
