<svg width="31" height="35" viewBox="0 0 31 35" fill="none" xmlns="http://www.w3.org/2000/svg">
<path d="M14.3245 17.405L21.4114 25.1182L5.70359 34.1823L5.70215 34.1831L5.65682 34.2097L5.65626 34.21C5.12312 34.5243 4.50126 34.7035 3.83791 34.7035C2.2254 34.7035 0.859479 33.638 0.411861 32.1724L14.3245 17.405Z" fill="white" stroke="#262632" stroke-width="0.5"/>
<path d="M28.5463 14.6793L28.5565 14.6863L28.5674 14.6922C29.6816 15.3017 30.4341 16.4815 30.4341 17.8385C30.4341 19.2053 29.6712 20.391 28.5456 20.9987L28.5456 20.9986L28.5395 21.0022L21.8438 24.8655L14.3681 17.3908L21.8067 10.7716L28.5404 14.6752L28.5463 14.6793Z" fill="white" stroke="#262632" stroke-width="0.5"/>
<path d="M0.25 4.49554C0.25 4.32661 0.261671 4.1612 0.284375 3.99955L14.4563 17.4282L0.282179 31.5995C0.26085 31.4427 0.25 31.2821 0.25 31.1185V4.49554Z" fill="white" stroke="#262632" stroke-width="0.5"/>
<path d="M5.69169 1.42286L5.69168 1.42288L5.69475 1.42467L21.3734 10.5149L14.4329 17.4534L0.413202 3.43602C0.864 1.97337 2.2295 0.9104 3.83845 0.9104C4.51612 0.9104 5.14901 1.09783 5.69169 1.42286Z" fill="white" stroke="#262632" stroke-width="0.5"/>
</svg>
