<svg width="40" height="23" viewBox="0 0 40 23" fill="none" xmlns="http://www.w3.org/2000/svg">
<path fill-rule="evenodd" clip-rule="evenodd" d="M11.2461 0C17.4577 0 22.4935 5.03579 22.4935 11.2473C22.4935 17.4588 17.4577 22.4946 11.2461 22.4946C5.0358 22.4946 0 17.4588 0 11.2473C0 5.03579 5.0358 0 11.2461 0ZM38.0176 1.77638C39.113 1.77638 40 6.01711 40 11.2473C40 16.4775 39.113 20.7182 38.0176 20.7182C36.9233 20.7182 36.0352 16.4775 36.0352 11.2473C36.0352 6.01711 36.9233 1.77638 38.0176 1.77638ZM29.2428 0.888189C32.3858 0.888189 34.9328 5.52587 34.9328 11.2473C34.9328 16.9687 32.3858 21.6064 29.2428 21.6064C26.0998 21.6064 23.5516 16.9687 23.5516 11.2473C23.5516 5.52587 26.0998 0.888189 29.2428 0.888189Z" fill="white"/>
</svg>
